<?xml version="1.0" encoding="UTF-8" standalone="no"?>
<svg width="497px" height="109px" viewBox="0 0 497 109" version="1.1" xmlns="http://www.w3.org/2000/svg" xmlns:xlink="http://www.w3.org/1999/xlink">
    <!-- Generator: Sketch 3.8.3 (29802) - http://www.bohemiancoding.com/sketch -->
    <title>Artboard</title>
    <desc>Created with Sketch.</desc>
    <defs>
        <polygon id="path-1" points="496.752832 0 0 0 0 108.697965 496.752832 108.697965 496.752832 1.99868795e-14"></polygon>
    </defs>
    <g id="Page-1" stroke="none" stroke-width="1" fill="none" fill-rule="evenodd">
        <g id="Artboard">
            <g id="Page-1">
                <mask id="mask-2" fill="white">
                    <use xlink:href="#path-1"></use>
                </mask>
                <g id="Clip-2"></g>
                <path d="M88.2211503,15.8630161 C88.2211503,12.0965387 91.2691362,9.04242903 95.0296291,9.04242903 C98.7894201,9.04242903 101.837406,12.0965387 101.837406,15.8630161 C101.837406,19.6294935 98.7894201,22.6836032 95.0296291,22.6836032 C91.2691362,22.6836032 88.2211503,19.6294935 88.2211503,15.8630161 M264.732666,91.1609194 C261.401783,95.8887065 257.486855,98.2747516 253.034914,98.2747516 C249.179655,98.2747516 247.265362,97.0441065 246.759236,95.8922226 C246.325414,94.9055968 246.740985,93.5441516 247.842388,92.3388226 C250.188396,89.7727516 254.063311,88.8001903 258.345373,88.8001903 C260.164197,88.8001903 262.056728,88.9752935 263.935921,89.2790871 C264.807777,89.4197323 265.242301,90.4387065 264.732666,91.1609194 M168.054934,46.4610742 C169.584543,42.0996677 172.475286,38.2888871 175.964816,36.7354613 C177.211527,36.1806161 178.350135,35.9028419 179.330797,35.9028419 C180.265129,35.9028419 181.056258,36.1545968 181.66066,36.6595129 C182.757149,37.5765194 183.202203,39.2600419 182.793652,40.9477839 C182.058681,43.9843129 178.925756,46.3309774 174.197938,47.3872226 C172.636039,47.7360226 171.034126,47.9976226 169.41677,48.1755387 C168.473313,48.2796161 167.740448,47.3576871 168.054934,46.4610742 M48.1972068,38.2389581 C53.9098989,17.5465387 60.0374596,10.7695516 61.982639,10.2308806 C62.2971249,10.2393194 62.7407746,10.3384742 63.2651517,11.4580097 C65.0453664,15.2617581 64.3012703,24.9613516 57.0477379,33.7003387 C55.0962407,36.0512226 52.8737802,38.0898742 50.4021178,39.8099645 C49.2993113,40.5778871 47.8391983,39.5364097 48.1972068,38.2389581 M492.268813,52.4469323 C488.491472,49.1347387 483.053253,48.0665387 477.722437,49.5925387 C475.102657,50.3421774 472.181729,52.0095258 468.48301,54.1213129 C465.843575,55.6283258 462.85596,57.3336484 459.591765,58.9060613 C458.260114,59.5467 456.714359,58.5825774 456.714359,57.1029903 L456.714359,57.0692355 C456.714359,49.185371 451.10556,41.4927839 445.681381,34.0533581 C444.03033,31.7882677 442.322419,29.4465258 440.840544,27.1877645 C439.85567,25.6863774 438.156885,24.8171903 436.36614,24.8861065 C434.573992,24.9592419 432.952424,25.968371 432.092502,27.5450032 C431.402458,28.8115129 428.770043,33.9767065 425.723461,39.9583452 C422.914147,45.4737452 420.008663,51.1776097 418.440445,54.1831968 C417.135469,56.6859774 415.472485,58.5875 413.622073,60.0234871 C411.762534,61.4665065 409.052902,60.0677903 409.057114,57.7105774 L409.057114,57.6374419 C409.057114,49.7535774 403.448314,42.0609903 398.024135,34.6215645 C396.408885,32.4057 394.739582,30.1167 393.280171,27.9036484 C392.500275,26.7201194 391.318847,25.8249129 389.929633,25.5499516 C387.680498,25.1048097 385.48752,26.1842613 384.435256,28.1132097 C383.906667,29.0829581 382.21771,32.4099194 379.277828,38.2080161 C375.613506,45.4350677 371.052759,54.4286226 369.103368,58.0516419 C366.588183,62.7245774 363.377338,65.1422677 360.723162,64.3574677 C358.233248,63.6233 355.808618,60.0122355 356.219275,54.766171 C356.431974,52.0489065 354.475563,49.6108226 351.715388,49.2838226 C349.347618,49.0039387 347.100588,50.4891516 346.287698,52.7345516 C343.531033,60.346971 339.413936,63.6176742 336.471246,64.1387645 C334.895307,64.4158355 333.584715,63.9390484 332.568252,62.7168419 C330.696078,60.4679258 329.681721,55.4841645 331.788355,47.8822935 C332.414519,46.1291516 332.825878,44.7845839 333.029451,44.0848742 C337.171118,33.1286161 345.471299,35.9260484 345.823691,36.0512226 C345.85528,36.0624742 345.886869,36.0737258 345.917756,36.0849774 C348.171104,36.8943903 349.821453,38.799429 350.46657,41.1088226 C350.908816,42.688971 352.100071,44.0286161 353.770777,44.5869774 C356.446715,45.4807774 359.33816,44.031429 360.229671,41.3514355 C360.363749,40.9484871 363.354173,31.4148548 349.23109,26.4064806 C344.19721,24.6216935 329.784912,23.6962484 323.461499,40.5096742 C323.454479,40.5258484 323.448162,40.5427258 323.441142,40.5596032 C323.429208,40.5919516 323.415871,40.6214871 323.403937,40.6531323 C322.960287,41.8500226 322.579816,43.0265194 322.235145,44.1910613 C321.366097,46.6157839 319.969864,50.1206613 318.1012,53.5692806 C314.396163,60.4074484 310.430693,64.1732226 306.934143,64.1732226 C306.849906,64.1732226 306.784622,64.1690032 306.736186,64.1647839 C306.525592,63.8265323 305.891707,62.4686032 305.900131,58.3181645 C305.90715,54.4047129 306.465924,49.5158871 307.056989,44.3394419 L307.101916,43.9491516 C309.037268,26.9964871 312.067704,7.56635806 312.097889,7.37156452 C312.534519,4.58046129 310.630054,1.96375806 307.843906,1.52635161 C305.052844,1.09175806 302.4457,2.9975 302.00907,5.7879 C301.978183,5.98480323 298.915455,25.6188677 296.955534,42.7867194 L296.910608,43.1763065 C295.477872,55.7239645 294.344881,65.635229 299.182909,71.0676484 C301.125982,73.2504613 303.806834,74.4037516 306.934143,74.4037516 C312.034711,74.4037516 316.351872,71.9283968 319.920023,68.3792161 C321.176563,67.1288806 323.208085,67.2906226 324.277899,68.7055129 C324.422506,68.8967903 324.571325,69.0845516 324.724356,69.2680935 C328.107888,73.3334419 333.035769,75.1351065 338.248653,74.2131774 C341.424399,73.6505968 344.443604,72.1056097 347.142005,69.7469903 C348.303075,68.7322355 350.046085,68.8440484 351.101157,69.9692097 C352.948762,71.9403516 355.230188,73.4023581 357.838034,74.1716871 C366.873186,76.8355065 374.222187,70.0979 378.092188,62.9067129 C380.101248,59.1739903 384.693584,50.1178484 388.382475,42.8408677 C388.501811,42.6059903 388.619744,42.3732226 388.738378,42.1397516 C389.157458,41.3127581 390.230782,41.2818161 390.757265,42.0019194 C394.884892,47.6867968 398.844746,53.4251194 398.844746,57.6374419 C398.844746,60.6275581 398.30282,63.3110677 391.753371,63.3110677 C388.960905,63.3110677 386.643677,65.5691258 386.645783,68.4495387 C386.647187,70.8496484 388.411256,72.881971 390.740417,73.4445516 C399.837342,75.6435387 418.903049,75.3917839 427.492444,58.920829 C429.083125,55.8709387 431.999139,50.1452742 434.820386,44.6080742 C435.413557,43.442829 436.011642,42.2691452 436.590773,41.1327323 C437.01196,40.3704355 437.649355,40.3795774 438.160395,41.0835065 C442.378577,46.8816032 446.501992,52.7697129 446.501992,57.0692355 C446.501992,61.7829581 444.14054,64.1732226 439.481516,64.1732226 C436.566906,64.1732226 434.222301,66.6197452 434.383054,69.5747 C434.533277,72.3425968 436.964927,74.4192226 439.732122,74.4030484 C453.724638,74.3228806 465.6393,67.5198742 473.540056,63.0093839 C476.394296,61.3800097 479.090591,59.8406484 480.526837,59.4292613 C482.452361,58.8786355 484.420003,59.160629 485.543167,60.1451452 C486.38905,60.8870484 486.70143,62.0586226 486.471883,63.6282226 C485.821852,68.0817516 477.379872,75.2553581 455.730187,80.8164677 C432.070039,86.8930419 396.935368,90.6939774 361.743135,90.9823 C329.512544,91.2495258 301.103519,88.5955516 282.037813,83.6349968 C280.876742,83.3333129 280.20495,82.1202484 280.562256,80.9732871 C283.705009,70.876371 284.906794,60.5291065 285.358166,54.766171 C285.570163,52.0608613 283.630599,49.6291065 280.883762,49.2880419 C278.527926,48.9955 276.285108,50.4553968 275.445543,52.6797 C271.837379,62.2337258 266.175931,65.0220161 263.294314,63.9460806 C260.426736,62.8743645 257.575304,56.6297194 262.038477,44.432971 C262.074277,44.3331129 262.101655,44.2571645 262.119906,44.2051258 C266.244725,33.1033 274.608786,35.9253452 274.961881,36.0512226 C274.994873,36.0624742 275.027164,36.074429 275.058753,36.0856806 C277.310697,36.8950935 278.961046,38.7980226 279.604759,41.1060097 C280.045601,42.6875645 281.237558,44.0286161 282.909669,44.5869774 C285.586308,45.4807774 288.476349,44.031429 289.367861,41.3514355 C289.501938,40.9484871 292.493064,31.4148548 278.369279,26.4064806 C273.320657,24.616771 258.836758,23.6864032 252.542126,40.6531323 C252.532299,40.6798548 252.524577,40.705171 252.514749,40.7318935 C252.513345,40.7354097 252.511239,40.7389258 252.510537,40.7424419 C249.072252,50.5658032 241.22976,64.1732226 235.448275,64.1732226 C235.389308,64.1732226 235.342978,64.1711129 235.308581,64.1675968 C234.789118,63.5002355 232.570167,59.1381258 238.234423,37.2727258 L238.405705,36.6102871 C238.933592,34.5674161 238.160715,32.3663194 236.356633,31.113171 C235.29384,30.3747839 233.9664,30.0878677 232.685292,30.2735194 C226.82729,31.1202032 219.642551,29.9233129 214.369999,27.2229258 C212.561003,26.295371 210.339245,26.5175903 208.730313,27.8846613 C207.746842,28.7200935 207.159287,29.9289387 206.967647,31.2059968 C205.263948,42.5370742 200.820431,51.6255645 194.111633,57.4975 C188.48739,62.4193774 182.323327,64.1732226 178.429458,64.1732226 C173.962074,64.1732226 170.767375,62.8673323 168.882566,60.2801645 C168.360294,59.5635774 168.794818,58.5460097 169.6758,58.4581065 C171.888433,58.2372935 174.142482,57.8814613 176.420399,57.3723258 C188.734486,54.6220097 191.92006,46.6558677 192.718208,43.3591452 C194.036522,37.9112548 192.264029,32.1982484 188.202388,28.8037774 C183.879611,25.1913065 177.907187,24.6744355 171.816831,27.3867774 C164.717032,30.5477774 159.35954,38.0835452 157.434718,46.3956742 C157.229039,47.2831452 156.362799,47.8562742 155.468479,47.6903129 C152.179715,47.0827258 149.149279,46.1263387 146.629882,44.859829 C146.264854,44.6762871 145.990381,44.3556161 145.836647,43.9758742 C143.074366,37.1588032 138.330403,32.3958548 138.049612,32.1180806 C136.317132,30.4015065 133.570294,30.1181065 131.487527,31.5941774 C130.077255,32.5941645 129.332457,34.2840161 129.355622,36.0146548 C129.432138,41.7417258 132.035772,46.8253452 136.898369,50.7296548 L136.903283,50.7338742 C137.219173,50.9870355 137.417832,51.3555258 137.471183,51.757771 C137.542082,52.2929258 137.580691,52.8330032 137.580691,53.3744871 C137.580691,57.8596613 135.889628,61.1472419 132.691419,62.8821 C129.630095,64.5438226 125.621102,64.479829 122.942356,62.7287968 C120.938211,61.4193903 120.035468,59.3687839 120.259399,56.6346419 C120.85257,49.3871968 122.710002,33.8501258 124.31753,20.7961452 C125.004766,15.7891774 125.550203,11.1113194 126.009998,7.17395806 C126.349755,4.26260323 124.178539,1.63535161 121.209174,1.4715 C118.502349,1.32241613 116.185824,3.42506129 115.849577,6.11982258 L115.735856,7.03401613 C115.279571,10.6900871 114.745366,14.9678097 114.188698,19.4818161 C113.052197,27.7517516 111.529608,36.8747 109.380153,44.7986484 C106.040145,57.111429 101.774228,64.1732226 97.6767859,64.1732226 C96.3823395,64.1732226 95.5252251,63.9292032 95.1286079,63.4481968 C92.8647308,60.6999903 94.9102929,50.0939387 96.2644073,43.0750419 C96.3760218,42.4962871 96.4890401,41.9126097 96.6006545,41.3261194 C96.9727025,39.715029 97.2878904,37.9956419 97.5363904,36.1574097 C97.9105444,33.3895129 95.9990599,30.8325839 93.2423946,30.4141645 C90.4878353,29.9978548 87.9031545,31.8684355 87.4405514,34.6236742 C87.1948593,36.0899 86.9091545,37.6278548 86.6164299,39.1622935 C84.8769299,46.5426484 81.4919949,51.5151581 76.7009992,53.6585903 C72.0939215,55.7204484 66.7518734,54.8055516 63.8555147,52.8365194 C61.8338198,51.4617129 59.0673268,51.6895581 57.2885161,53.5404484 C56.1442929,54.7303065 55.6992393,56.4412548 55.9793282,58.0692226 C59.8409059,80.5183 54.4426997,93.1700355 48.6359427,97.1854548 C47.4818918,97.9843194 45.2460938,99.1467516 43.2426503,97.9583 C41.1816446,96.7367968 39.2392732,92.8810097 39.9700316,85.7228742 C41.1177647,74.4811065 42.5189116,64.8110484 44.0569441,56.5172032 C44.3321192,55.0326935 45.364728,53.8161129 46.7665768,53.2612677 C55.5728833,49.7774871 61.3747266,44.4885258 64.9000571,40.2410419 C73.4655853,29.9219065 76.6666023,15.9895968 72.510896,7.11348065 C70.3937322,2.59244194 66.5251347,-0.000351612903 61.8955938,-0.000351612903 C51.7815034,-0.000351612903 42.7266969,15.8763774 36.3730994,43.3007774 C36.0186008,44.8302935 34.770485,46.0124161 33.217711,46.2254935 C25.3169554,47.3098677 16.2775924,46.591171 6.39304859,44.0089258 C3.56127175,43.2705387 0.666316949,45.0609516 0.092099435,47.9793387 C-0.434383616,50.6593323 1.34863898,53.2683 3.98807401,53.9532419 C14.2783607,56.6233903 23.0895811,57.3533387 30.6000373,56.8224032 C32.1577251,56.7127 33.4009271,58.0931323 33.1411955,59.6360097 C31.8425373,67.3616484 30.7242873,75.7300355 29.8110147,84.6821 C28.3165048,99.3225581 35.0695274,105.001106 38.0424017,106.76339 C40.2255514,108.057326 42.6347379,108.697965 45.0993805,108.697965 C48.2379215,108.697965 51.4677195,107.658597 54.4377859,105.604474 C58.286026,102.943468 69.6924568,92.5729968 67.1611263,64.7470548 C71.4305528,65.4291839 76.2426079,65.0677258 80.8644271,63.0002419 C81.8858042,62.5431452 82.950002,61.9798613 84.0282393,61.2836677 C84.348341,64.6408677 85.3037322,67.5944161 87.2524215,69.9600677 C88.9224257,71.9874677 92.0862379,74.4037516 97.6767859,74.4037516 C102.703646,74.4037516 106.641037,71.8847968 109.711486,68.3306935 C110.829736,67.0367581 112.8402,67.0641839 113.964066,68.3531968 C114.932092,69.4628871 116.067892,70.4516226 117.361636,71.2969 C123.129784,75.0668935 131.245345,75.3010677 137.554718,71.8784677 C142.771112,69.0486871 146.204484,64.1521258 147.359938,58.0804742 C147.546664,57.1015839 148.537155,56.5080613 149.494652,56.7773968 C151.544426,57.3533387 153.732489,57.8237968 156.028657,58.1592355 C156.704662,58.2576871 157.25782,58.7408032 157.431208,59.4025387 C157.683218,60.3666613 158.036313,61.4425968 158.390109,62.3005323 C161.54269,69.9530355 168.776567,74.4037516 178.429458,74.4037516 C185.872525,74.4037516 194.247115,70.963571 200.830961,65.2013387 C208.966177,58.0811774 213.240518,48.7149129 215.472104,40.4027839 C215.703756,39.5420355 216.58193,39.0300871 217.441852,39.2600419 C219.891051,39.9147452 222.429402,40.3641065 224.961434,40.5933581 C225.958242,40.683371 226.651796,41.6242871 226.435587,42.6031774 C223.879687,54.1712419 222.872349,64.7758871 227.273046,70.4755323 C229.229457,73.0085516 232.132835,74.4037516 235.448275,74.4037516 C239.995684,74.4037516 244.386553,72.2047645 248.573146,67.8609387 C249.801606,66.5859903 251.920876,66.7273387 252.932426,68.1809065 C254.715448,70.7434613 257.074092,72.5402032 259.724759,73.5310484 C263.1118,74.7968548 267.031642,74.6927774 270.872862,73.047229 C271.468841,72.7919581 272.089389,73.3510226 271.927232,73.9790032 C271.616958,75.183629 271.279307,76.3938806 270.912173,77.5978032 C270.484669,78.9979258 269.053337,79.8185903 267.621303,79.5260484 C255.924955,77.1322677 246.012332,79.1927194 240.310872,85.429629 C236.433851,89.6707839 235.323323,95.2593194 237.412407,100.013829 C239.748588,105.330919 245.58904,108.505281 253.034914,108.505281 C263.285188,108.505281 270.149825,102.038416 274.657924,94.5842226 C275.385875,93.3795968 276.83265,92.8261581 278.189573,93.1918355 C298.216988,98.5912032 328.117013,101.491306 361.82667,101.212126 C397.7988,100.917474 433.850955,96.9976935 458.266431,90.7256226 C481.762317,84.6905387 495.010736,75.8327065 496.576848,65.1092161 C497.308308,60.1036548 495.737985,55.4883839 492.268813,52.4469323" id="Fill-1" fill="#6060EF" mask="url(#mask-2)"></path>
            </g>
        </g>
    </g>
</svg>